PathFileType	4	(X/Y/Z)	c:/Users/goper/Files/vsCode/490R/osim_files/A03/A03_Slow_05.trc
DataRate	CameraRate	NumFrames	NumMarkers	Units                	OrigDataRate	OrigDataStartFrame	OrigNumFrames
250.00	250.00	8	36	mm	250.0	1293	2584
                Frame#	Time	LPSIS			LASIS			LTH1			LTH2			LTH3			LTH4			LLFE			LMFE			LSH1			LSH2			LSH3			LSH4			LLMAL			LMMAL			LCAL			LMTP5			LTOE			LMTP1			RPSIS			RASIS			RTH1			RTH2			RTH3			RTH4			RLFE			RMFE			RSH1			RSH2			RSH3			RSH4			RLMAL			RMMAL			RCAL			RMTP1			RTOE			RMTP5		
		X1	Y1	Z1	X2	Y2	Z2	X3	Y3	Z3	X4	Y4	Z4	X5	Y5	Z5	X6	Y6	Z6	X7	Y7	Z7	X8	Y8	Z8	X9	Y9	Z9	X10	Y10	Z10	X11	Y11	Z11	X12	Y12	Z12	X13	Y13	Z13	X14	Y14	Z14	X15	Y15	Z15	X16	Y16	Z16	X17	Y17	Z17	X18	Y18	Z18	X19	Y19	Z19	X20	Y20	Z20	X21	Y21	Z21	X22	Y22	Z22	X23	Y23	Z23	X24	Y24	Z24	X25	Y25	Z25	X26	Y26	Z26	X27	Y27	Z27	X28	Y28	Z28	X29	Y29	Z29	X30	Y30	Z30	X31	Y31	Z31	X32	Y32	Z32	X33	Y33	Z33	X34	Y34	Z34	X35	Y35	Z35	X36	Y36	Z36

1293	5.16800	-831.88116	1051.07483	274.00079	-1057.54456	963.02771	417.85864	-906.88702	623.78613	437.78668	-905.16077	581.49219	437.43219	-966.14978	611.74829	423.04898	-952.43445	569.99805	423.09546	-882.12134	540.98340	424.87836	-899.14447	531.08710	269.94788	-821.16992	466.82156	424.05005	-812.89905	418.92361	422.02472	-880.54333	447.13925	417.16751	-860.98352	403.67023	411.64984	-737.66199	101.81512	384.21231	-744.43207	108.12274	285.16666	-664.83392	90.76564	332.50507	-884.23962	40.11480	387.87964	-912.53571	68.91749	318.54019	-879.82794	49.45189	274.65152	-839.93262	1048.92236	194.81761	-1097.21594	974.79370	120.25114	-1118.64099	608.05341	69.76966	-1134.28882	566.67322	78.46519	-1177.45264	624.80609	75.02399	-1185.74426	581.89423	83.19692	-1167.76819	546.60211	97.46681	-1192.36633	558.25720	216.68536	-1139.27356	469.21335	88.75187	-1153.95825	431.67953	74.93343	-1199.52576	486.86136	86.53681	-1207.24646	441.50333	73.65469	-1298.56738	143.95224	98.31070	0.00000	0.00000	0.00000	-1271.62012	76.12786	152.46198	-1473.65002	152.78818	190.71895	-1483.91467	185.15897	141.52657	-1475.13391	133.82481	77.05296
1294	5.17200	-836.36646	1050.32080	273.02969	-1061.54956	962.07886	417.85934	-909.46796	623.39484	437.55325	-907.55182	581.06024	437.24829	-968.60449	611.11481	422.93930	-954.80377	569.35181	423.10315	-884.45422	540.59515	424.68640	-901.43652	530.53644	269.69626	-823.16559	466.76770	423.87943	-814.65765	418.93628	421.85144	-882.47339	446.84769	417.03577	-862.70740	403.45932	411.52454	-737.86475	102.01028	384.26968	-744.69397	108.30461	285.11130	-665.02350	91.17389	332.52255	-884.28772	40.05983	387.87799	-912.64166	68.83230	318.56317	-879.96527	49.32062	274.70416	-844.60352	1048.00806	193.93011	-1102.14185	973.59570	120.05557	-1122.82788	607.10065	70.10323	-1138.65613	565.69281	78.63850	-1181.57532	624.02844	75.51538	-1190.04309	581.11810	83.52668	-1172.02051	545.52649	97.61362	-1196.33765	557.50330	216.78879	-1143.77026	467.85995	89.00929	-1158.52283	430.35834	75.27283	-1203.93445	485.76697	86.59576	-1212.55762	440.48239	73.81615	-1304.90808	143.46913	99.10558	0.00000	0.00000	0.00000	-1279.21631	75.35047	154.00055	-1481.15039	154.22159	189.16017	-1490.35901	186.65211	139.79187	-1481.14380	134.97253	75.54690
1295	5.17600	-840.92108	1049.56482	272.07675	-1065.59399	961.12439	417.83878	-912.12769	622.96667	437.32162	-910.04980	580.65625	437.11026	-971.06299	610.45087	422.81631	-957.23499	568.76099	423.09271	-886.90570	540.22034	424.48721	-903.92450	530.06006	269.53131	-825.20135	466.70059	423.69196	-816.50665	418.91302	421.72372	-884.39142	446.51450	416.80771	-864.46576	403.19931	411.40430	-738.06024	102.21692	384.30548	-744.93542	108.55156	285.07483	-665.28253	91.60539	332.57269	-884.34332	39.98889	387.85580	-912.72394	68.72604	318.55032	-880.05359	49.24690	274.67599	-849.23633	1047.11206	193.04315	-1107.01831	972.44659	119.84470	-1127.29822	606.25171	70.30756	-1143.18811	564.88690	78.72695	-1185.97583	623.37427	75.91047	-1194.51013	580.43585	83.72500	-1176.42627	544.61230	97.72318	-1200.55615	557.61902	217.32248	-1148.38281	466.72202	88.92522	-1163.25452	429.02814	75.55181	-1208.45386	484.65317	86.54895	-1216.76868	439.16254	74.39536	-1310.71973	142.72591	100.00861	0.00000	0.00000	0.00000	-1286.25696	74.49835	155.75420	-1488.11963	155.33925	187.67899	-1495.84119	187.54114	137.80278	-1486.60571	135.56236	74.14995
1296	5.18000	-845.42023	1048.82654	271.11221	-1069.58899	960.10101	417.67206	-914.85999	622.51807	437.10544	-912.57208	580.20398	436.95947	-974.03485	609.45355	422.73630	-959.96533	567.00787	422.79303	-889.95490	539.30310	424.52869	-906.07251	529.36426	269.10764	-827.37927	466.61633	423.56482	-818.34174	418.84579	421.59760	-886.37793	446.18210	416.70425	-866.24457	402.88937	411.26627	-738.29230	102.44182	384.39569	-745.22784	108.77330	285.01450	-665.54883	92.05367	332.61581	-884.35828	39.91971	387.85208	-912.80756	68.59465	318.51392	-880.15631	49.18517	274.68985	-853.92535	1046.18091	192.13893	-1112.00745	971.35535	119.67847	-1131.95276	605.50775	70.45885	-1147.91699	564.17896	78.68140	-1190.55444	622.82623	76.23569	-1199.30847	579.86310	83.91331	-1181.31482	543.87476	97.71535	-1205.16748	556.86774	217.44183	-1153.11548	465.23242	89.30454	-1168.05383	427.69348	75.78281	-1213.14111	483.49988	86.40951	-1221.89978	438.13022	73.93463	-1316.02356	141.78012	100.90577	0.00000	0.00000	0.00000	-1292.60303	73.54503	157.51068	-1494.38538	156.03290	186.28210	-1501.23816	187.97453	136.15219	-1491.51111	135.51169	72.96645
1297	5.18400	-849.96210	1048.01746	270.18915	-1073.52161	959.00195	417.41406	-917.61603	622.08502	436.89871	-915.22827	579.73065	436.84409	-976.81372	608.76154	422.71231	-962.51929	566.36389	422.83350	-892.57727	538.86346	424.35843	-909.00421	528.88977	269.14291	-829.58716	466.52817	423.41257	-820.40088	418.79868	421.54697	-888.49481	445.81979	416.54987	-868.18915	402.61774	411.21591	-738.49951	102.67967	384.45941	-745.49823	109.05830	284.99307	-665.88428	92.57481	332.65283	-884.41833	39.86551	387.87524	-912.93390	68.46044	318.53470	-880.18317	49.18765	274.60428	-858.64771	1045.26794	191.25912	-1116.97620	970.32373	119.50846	-1136.86804	604.80597	70.51699	-1153.00403	563.46692	78.59955	-1195.31641	622.34845	76.53056	-1204.17261	579.39502	83.95645	-1186.29321	543.19678	97.66953	-1210.07581	556.11963	217.55400	-1157.97839	464.06396	89.31866	-1172.85510	426.51050	75.98284	-1217.90869	482.37350	86.23959	-1226.74951	436.91605	73.98759	-1320.85657	140.67749	101.74599	0.00000	0.00000	0.00000	-1298.62732	72.39431	159.36366	-1500.10193	156.21936	185.04474	-1506.15845	187.85722	134.68077	-1495.89771	134.82776	71.92129
1298	5.18800	-854.55310	1047.18958	269.29129	-1077.59119	957.97742	417.35236	-920.53290	621.60791	436.73929	-917.91882	579.24969	436.76990	-979.59680	608.02930	422.72992	-965.22607	565.73206	422.87881	-895.26837	538.42877	424.25632	-911.89685	528.35968	269.15424	-831.95001	466.43036	423.31293	-822.45221	418.74490	421.44958	-890.67902	445.44559	416.50085	-870.09302	402.27621	411.08661	-738.74915	102.96317	384.49722	-745.81586	109.29711	284.92548	-666.19598	93.16215	332.71054	-884.42841	39.77113	387.86282	-913.06390	68.30376	318.53052	-880.28864	49.10545	274.58878	-863.40167	1044.35339	190.36964	-1121.93616	969.35553	119.31819	-1141.89087	604.21063	70.47324	-1158.11267	562.84595	78.42182	-1200.28149	621.91064	76.72721	-1209.25781	578.98175	84.05956	-1191.03210	542.33472	97.55072	-1214.98828	555.39362	217.46562	-1162.86060	463.01801	89.33632	-1177.71777	425.38831	76.13326	-1222.89697	481.26404	86.05696	-1231.63770	435.79099	73.97655	-1325.19360	139.46625	102.59051	0.00000	0.00000	0.00000	-1303.61475	71.35178	160.95949	-1505.24500	155.90144	184.02023	-1510.67712	187.09068	133.39008	-1499.89514	133.56390	71.09071
1299	5.19200	-859.13348	1046.39343	268.38901	-1081.61646	956.94434	416.99524	-923.48224	621.15222	436.59326	-920.67517	578.78503	436.68921	-982.52502	607.31244	422.75522	-967.97601	565.10364	422.91968	-898.05945	537.95758	424.18140	-914.80872	527.86908	269.13287	-834.31415	466.36874	423.22275	-824.59943	418.68121	421.38654	-892.86707	445.05978	416.40424	-872.03485	401.92908	411.04657	-738.94360	103.28054	384.54968	-746.12701	109.65188	284.88913	-666.52234	93.81251	332.71216	-884.43536	39.69406	387.86197	-913.14502	68.16513	318.49283	-880.37567	49.01556	274.55496	-868.14856	1043.45190	189.50958	-1126.97668	968.43475	119.21350	-1147.06702	603.63580	70.39500	-1163.42395	562.27472	78.25111	-1205.41516	621.49731	76.92731	-1214.51941	578.55658	84.06283	-1196.18298	541.66211	97.37653	-1220.03638	554.55884	217.35149	-1168.00488	462.03555	89.39423	-1183.11072	424.35953	76.18681	-1227.97791	480.20291	85.89745	-1236.99036	434.54694	74.56548	-1329.08667	138.16827	103.24898	0.00000	0.00000	0.00000	-1308.03821	70.78411	162.60872	-1509.76978	154.94890	183.27881	-1514.81128	185.73164	132.29051	-1503.44238	131.76337	70.49538
1300	5.19600	-863.73853	1045.56238	267.54337	-1085.72888	956.02612	416.94199	-926.51111	620.70148	436.48547	-923.58167	578.34753	436.64267	-985.54132	606.65247	422.79169	-970.82123	564.51575	422.98853	-900.89124	537.53687	424.09851	-918.29944	527.77667	268.59930	-836.74823	466.28326	423.13525	-826.76447	418.65912	421.31433	-895.12628	444.69681	416.36737	-874.16687	401.66660	410.99765	-739.24707	103.65575	384.55734	-746.56409	110.05315	284.80566	-666.81635	94.54097	332.68234	-884.49731	39.64641	387.83136	-913.27551	68.01309	318.47333	-880.48926	48.92367	274.52048	-872.93939	1042.59436	188.68530	-1132.03772	967.61108	119.05954	-1152.43518	603.05090	70.31286	-1168.87231	561.70416	78.07037	-1210.70056	621.07349	77.05204	-1219.88354	578.10602	84.08718	-1201.46936	541.06012	97.18745	-1225.30383	553.90179	217.21568	-1173.04919	461.19904	89.36702	-1187.72888	423.40588	76.33410	-1233.11707	479.15259	85.78253	-1241.18347	433.43903	74.41074	-1332.19177	137.13628	103.56335	0.00000	0.00000	0.00000	-1311.32605	71.23289	163.76811	-1513.68005	153.10071	182.85095	-1518.51624	183.72639	131.63301	-1506.66541	129.50563	70.15311
